# xmcd CD database file
#
# Track frame offsets:
#	150
#	24637
#	44025
#
# Disc length: 911 seconds
#
# Revision: 0
# Processed by: cddbd v1.5.1PL2 Copyright (c) Steve Scherf et al.
# Submitted via: CDex 1.51
#
DISCID=23038d03
DTITLE=中西圭三 - ＭＵＳＴ　ＢＥ　ＨＥＡＶＥＮ〜関西ＴＶ／フジＴＶ系ドラマ「明日はだいじょうぶ」挿入歌
DYEAR=1900
DGENRE=JPop
TTITLE0=ＭＵＳＴ　ＢＥ　ＨＥＡＶＥＮ
TTITLE1=Ｙｅｓ
TTITLE2=ＭＵＳＴ　ＢＥ　ＨＥＡＶＥＮ（Ｗｉｔｈｏｕｔ　Ｖｏｘ）
EXTD=
EXTT0=
EXTT1=
EXTT2=
PLAYORDER=
